<svg id="Layer_1" enable-background="new 0 0 511.976 511.976" height="512" viewBox="0 0 511.976 511.976" width="512" xmlns="http://www.w3.org/2000/svg"><g id="XMLID_1290_"><g id="XMLID_385_"><path id="XMLID_397_" d="m97.869 355.03c-3.904-3.904-10.236-3.904-14.142 0l-35.165 35.164c-1.875 1.876-2.929 4.419-2.929 7.071s1.054 5.195 2.929 7.071l55.466 55.467c1.875 1.875 4.419 2.929 7.071 2.929s5.196-1.054 7.071-2.929l22.226-22.226c1.875-1.876 2.929-4.419 2.929-7.071v-25.878c0-2.652-1.054-5.195-2.929-7.071zm25.457 71.334-12.226 12.226-41.324-41.324 21.022-21.022 32.528 32.527z"/><path id="XMLID_439_" d="m361.976 249.641c-25.494 0-46.235 20.741-46.235 46.235 0 5.522 4.477 10 10 10s10-4.478 10-10c0-14.466 11.769-26.235 26.235-26.235 5.523 0 10-4.478 10-10s-4.477-10-10-10z"/><path id="XMLID_440_" d="m398.212 285.876c-5.523 0-10 4.478-10 10 0 14.466-11.769 26.235-26.235 26.235-5.523 0-10 4.478-10 10s4.477 10 10 10c25.494 0 46.235-20.741 46.235-46.235 0-5.523-4.477-10-10-10z"/><path id="XMLID_441_" d="m361.976 378.111c-45.345 0-82.235-36.891-82.235-82.235 0-5.522-4.477-10-10-10s-10 4.478-10 10c0 56.373 45.863 102.235 102.235 102.235 5.523 0 10-4.478 10-10s-4.477-10-10-10z"/><path id="XMLID_491_" d="m437.879 349.239c1.536.851 3.196 1.254 4.835 1.254 3.519 0 6.932-1.861 8.757-5.158 8.335-15.053 12.74-32.155 12.74-49.459 0-36.382-19.583-70.313-51.105-88.55-4.779-2.765-10.898-1.132-13.664 3.648s-1.132 10.897 3.648 13.664c25.364 14.674 41.121 41.971 41.121 71.237 0 13.923-3.54 27.676-10.237 39.771-2.675 4.832-.927 10.918 3.905 13.593z"/><path id="XMLID_627_" d="m361.976 193.641c-27.308 0-52.982 10.634-72.292 29.943-3.905 3.905-3.905 10.237 0 14.143 1.953 1.952 4.512 2.929 7.071 2.929s5.119-.977 7.071-2.929c15.532-15.532 36.183-24.086 58.149-24.086 5.523 0 10-4.478 10-10s-4.476-10-9.999-10z"/><path id="XMLID_628_" d="m407.666 364.47c-1.86 1.86-2.93 4.44-2.93 7.07s1.07 5.21 2.93 7.069c1.86 1.86 4.44 2.931 7.07 2.931s5.21-1.07 7.07-2.931c1.86-1.859 2.93-4.439 2.93-7.069s-1.07-5.21-2.93-7.07-4.44-2.93-7.07-2.93-5.21 1.069-7.07 2.93z"/><path id="XMLID_632_" d="m401.833 151.261v-16.849h14.84c5.523 0 10-4.478 10-10v-25.462h25.726c5.523 0 10-4.481 10-10.004 0-2.652-1.054-5.195-2.929-7.071l-75.335-75.336c-1.875-1.875-4.419-2.929-7.071-2.929s-5.196 1.054-7.071 2.929l-355.372 355.372c-19.495 19.495-19.495 51.216 0 70.711l61.123 61.123c9.748 9.747 22.552 14.621 35.355 14.621 12.804 0 25.608-4.874 35.356-14.621l78.567-78.569c1.875-1.876 2.929-4.419 2.929-7.071v-25.462h11.6c17.976 25.382 43.828 45.158 74.835 55.524 1.052.352 2.121.519 3.172.519 4.183 0 8.083-2.646 9.482-6.832 1.751-5.238-1.075-10.903-6.313-12.655-53.085-17.747-88.752-67.307-88.752-123.322 0-71.683 58.318-130 130-130s130 58.317 130 130c0 56.016-35.666 105.574-88.75 123.321-5.238 1.752-8.064 7.417-6.313 12.655 1.751 5.237 7.418 8.065 12.655 6.313 61.253-20.479 102.408-77.661 102.408-142.29.001-68.914-46.716-127.114-110.142-144.615zm-269.52 328.341c-11.696 11.698-30.729 11.698-42.426.001l-3.38-3.381s0-.001-.001-.001l-57.742-57.742c-11.697-11.696-11.697-30.729 0-42.426l62.035-62.035 76.527 76.527v54.044zm79.663-183.726c0 23.746 5.562 46.482 15.629 66.767h-9.654c-5.523 0-10 4.478-10 10v31.319l-20.626 20.626v-38.185c0-2.652-1.054-5.195-2.929-7.071l-79.456-79.456 272.124-272.123 51.197 51.197h-11.588c-5.523 0-10 4.478-10 10v25.462h-14.84c-5.523 0-10 4.478-10 10v22.78c-6.499-.863-13.125-1.316-19.856-1.316-82.711 0-150.001 67.29-150.001 150z"/><path id="XMLID_665_" d="m361.976 425.88c-2.63 0-5.21 1.06-7.07 2.92-1.86 1.87-2.93 4.44-2.93 7.08 0 2.63 1.07 5.21 2.93 7.07 1.86 1.859 4.44 2.92 7.07 2.92s5.21-1.061 7.07-2.92c1.86-1.87 2.93-4.44 2.93-7.07 0-2.64-1.07-5.21-2.93-7.08-1.86-1.861-4.44-2.92-7.07-2.92z"/></g></g></svg>